<svg width="20" height="24" viewBox="0 0 20 24" fill="none" xmlns="http://www.w3.org/2000/svg">
<path d="M19.0067 8.22168C19.0102 7.52792 18.8205 6.84689 18.4589 6.25485C18.0971 5.66281 17.5778 5.18315 16.959 4.86957C16.3401 4.556 15.6461 4.42091 14.9548 4.47941C14.2635 4.53793 13.6022 4.78773 13.0448 5.20085C12.4875 5.61397 12.0561 6.17409 11.7991 6.8185C11.5421 7.4629 11.4695 8.16613 11.5895 8.84944C11.7096 9.53274 12.0174 10.1692 12.4787 10.6874C12.94 11.2056 13.5365 11.5852 14.2012 11.7836C13.9558 12.2824 13.576 12.703 13.1047 12.9979C12.6334 13.2929 12.0892 13.4505 11.5331 13.4532H8.54371C7.43702 13.4571 6.37138 13.8727 5.55427 14.6191V7.39809C6.46159 7.21288 7.26783 6.69737 7.81668 5.95151C8.36554 5.20565 8.61784 4.28256 8.52477 3.36121C8.4317 2.43987 7.99985 1.5859 7.31292 0.964873C6.62599 0.343845 5.73295 0 4.80691 0C3.88087 0 2.98783 0.343845 2.3009 0.964873C1.61397 1.5859 1.18211 2.43987 1.08904 3.36121C0.995959 4.28256 1.24831 5.20565 1.79715 5.95151C2.34599 6.69737 3.15223 7.21288 4.05955 7.39809V16.5159C3.15393 16.6891 2.34299 17.1877 1.77969 17.9176C1.21639 18.6476 0.939678 19.5585 1.00173 20.4785C1.06379 21.3984 1.46033 22.2639 2.11656 22.9115C2.77279 23.5592 3.64335 23.9444 4.56403 23.9944C5.48472 24.0445 6.39187 23.7558 7.1144 23.183C7.83693 22.6102 8.32488 21.7928 8.48621 20.885C8.64754 19.9771 8.47116 19.0417 7.99023 18.255C7.50932 17.4683 6.75717 16.8848 5.87564 16.6145C6.12152 16.1162 6.50142 15.6963 6.97272 15.4019C7.44401 15.1074 7.98803 14.9503 8.54371 14.9479H11.5331C12.4658 14.9436 13.3739 14.6486 14.1311 14.1039C14.8882 13.5592 15.4566 12.792 15.7572 11.9091C16.6531 11.7914 17.476 11.3528 18.0735 10.6748C18.671 9.9968 19.0025 9.12533 19.0067 8.22168ZM2.56483 3.73752C2.56483 3.29408 2.69633 2.8606 2.94269 2.4919C3.18906 2.12319 3.53922 1.83581 3.9489 1.66611C4.3586 1.49642 4.8094 1.45202 5.24432 1.53854C5.67924 1.62504 6.07874 1.83857 6.3923 2.15214C6.70586 2.4657 6.9194 2.8652 7.00591 3.30012C7.09241 3.73504 7.04802 4.18585 6.87832 4.59553C6.70862 5.00521 6.42125 5.35539 6.05254 5.60175C5.68383 5.84811 5.25035 5.9796 4.80691 5.9796C4.21227 5.9796 3.642 5.74339 3.22152 5.32291C2.80105 4.90245 2.56483 4.33216 2.56483 3.73752ZM7.04899 20.1794C7.04899 20.6229 6.91749 21.0563 6.67113 21.425C6.42476 21.7937 6.0746 22.0811 5.66492 22.2508C5.25523 22.4205 4.80442 22.4649 4.36951 22.3784C3.93458 22.292 3.53509 22.0784 3.22152 21.7648C2.90796 21.4512 2.69443 21.0517 2.60791 20.6169C2.52141 20.1819 2.5658 19.7311 2.7355 19.3214C2.9052 18.9117 3.19258 18.5615 3.56128 18.3152C3.92999 18.0689 4.36347 17.9373 4.80691 17.9373C5.40155 17.9373 5.97183 18.1736 6.3923 18.594C6.81277 19.0145 7.04899 19.5848 7.04899 20.1794ZM15.2699 10.4638C14.8265 10.4638 14.393 10.3322 14.0243 10.0859C13.6556 9.83954 13.3683 9.48937 13.1986 9.07969C13.0289 8.67 12.9844 8.2192 13.0709 7.78427C13.1574 7.34935 13.3709 6.94985 13.6845 6.63629C13.9981 6.32273 14.3976 6.10919 14.8325 6.02268C15.2674 5.93617 15.7183 5.98058 16.1279 6.15027C16.5377 6.31997 16.8878 6.60734 17.1341 6.97605C17.3805 7.34476 17.512 7.77823 17.512 8.22168C17.512 8.81632 17.2757 9.3866 16.8553 9.80706C16.4348 10.2275 15.8645 10.4638 15.2699 10.4638Z" fill="#C5C5C5"/>
</svg>
